<?xml version="1.0" encoding="utf-8"?>
<!-- Generator: Adobe Illustrator 19.2.0, SVG Export Plug-In . SVG Version: 6.00 Build 0)  -->
<svg version="1.0" xmlns="http://www.w3.org/2000/svg" xmlns:xlink="http://www.w3.org/1999/xlink" x="0px" y="0px"
	 viewBox="0 0 800 600" style="enable-background:new 0 0 800 600;" xml:space="preserve">
<style type="text/css">
	.st0{fill:#FF5A5A;}
	.st1{fill:#2484BA;}
	.st2{fill:#FFE000;}
	.st3{font-family:'FuturaStd-Heavy';}
	.st4{font-size:12px;}
	.st5{fill:none;stroke:#2484BA;stroke-miterlimit:10;}
	.st6{fill:#FFFFFF;}
	.st7{fill:none;stroke:#FFFFFF;stroke-width:2;stroke-miterlimit:10;}
</style>
<g id="Human">
	<g id="Layer_9">
		<polygon class="st0" points="595.1,146.6 558.1,159.6 543.1,166.2 540.1,182.2 555.8,198.6 561.8,225.6 562.5,251.6 561.1,270.9 
			563.1,279.6 629.8,276.9 632.5,269.2 629.8,246.9 629.8,213.1 636.5,185.9 649.1,174.9 645.8,167.2 634.8,161.6 		"/>
		<polygon class="st0" points="585.8,152.2 580.8,137.9 594.3,134.1 607.8,136.2 603.5,152.2 		"/>
		<polygon class="st0" points="564.1,269.9 554.8,303.2 557.1,319.6 581.5,326.9 596.8,322.2 596.8,301.2 598.8,300.2 598.8,323.2 
			611.1,326.9 633.5,324.6 638.8,312 633.1,277.2 628.5,269.9 		"/>
		<polygon class="st0" points="608.8,130.1 613.6,130.1 616.1,117.7 613.6,115.7 		"/>
		<polygon class="st0" points="573.6,116.7 571.3,119.4 575,130.9 579.1,130.9 		"/>
		<polygon class="st1" points="586.5,142.2 578.5,136.6 570.8,109.6 578.6,96.2 590.1,91.2 602.1,91.2 611.8,97.9 616.1,107.6 
			611.1,132.6 601.1,142.2 		"/>
	</g>
	<g id="Layer_10">
		<polygon class="st0" points="559.6,301.4 553.3,317.9 552.2,353.6 554.1,372.5 551.8,401.4 544.8,426.9 543.5,444.2 549.1,479.1 
			547.5,500.3 543.1,503 538.8,504.4 538.5,509 544.4,513.8 548.7,518.8 558.7,519.6 560.6,516.1 561.1,510.1 563.1,505.6 
			563.5,501.3 565.7,494.1 562.6,482.5 566.9,460.7 572.6,443.8 573.3,417.4 582.1,399.7 584.4,370.2 593.2,333.7 593.6,311.4 		"/>
		<polygon class="st0" points="640.1,310 642.8,318.1 642.8,344.4 637.1,376.4 637.1,391.9 637.1,407.1 642.8,428.6 642.8,444.6 
			637.1,474.4 633.6,491.4 635.1,498.4 635.1,503.6 640.8,506.1 642.8,511.4 640.3,514.1 635.8,516.6 633.6,520.4 622.8,521.9 
			619.8,518.6 619.8,513.9 618.3,506.9 618.3,496.1 621.3,485.6 619.6,467.4 614.1,445.1 614.1,420.4 606.6,400.6 606.6,365.9 
			603.1,340.1 604.3,319.1 		"/>
		<polygon class="st0" points="523.3,203.9 532.5,185.6 537.6,172.9 549.5,163.6 551.1,195.5 540.7,208.6 531.3,220.9 		"/>
		<polygon class="st0" points="526.2,223.3 521.3,205.9 510.1,189.2 500.4,173.5 491.6,156.6 494.3,150 495,148.4 485.3,139.2 
			479.4,137.8 469.9,147.1 474.9,157.6 479.3,163.1 502.8,219 513.2,228.7 		"/>
		<polygon class="st0" points="636.7,163.4 644.9,171.5 652.3,181.5 657,195.5 675.7,220.4 681,223.9 672.2,240.3 663.5,233.5 
			641.9,208.6 627.9,180 		"/>
		<polygon class="st0" points="672.2,241.3 686.5,229 713.5,191.4 722.8,187.4 730.2,178 722.8,166.5 710,168.7 705.6,182.2 
			683.4,204.4 666.4,216.9 658.2,226.9 		"/>
		<polygon class="st0" points="494.8,141.2 495,148.4 492.9,149 489.5,146.4 487.8,133.8 490.5,133 		"/>
		<polygon class="st0" points="485.3,139.2 478.5,125.4 475.4,127.6 481.8,140.7 		"/>
		<polygon class="st0" points="478.5,140.6 472,125 468.6,127.6 476.2,143.6 		"/>
		<polygon class="st0" points="475.4,142.8 465.4,129.6 463.6,133.2 474.1,146.2 		"/>
		<polygon class="st0" points="476.4,152 463.3,138 461.6,141.3 474.2,154.5 		"/>
		<polygon class="st0" points="703.9,169 703.7,176.1 707.5,182.2 709.5,174.1 711.3,161.5 708.5,160.7 		"/>
		<polygon class="st0" points="713.3,169.5 722.7,152.4 726.9,155 718,171.1 		"/>
		<polygon class="st0" points="721.5,169.8 728.9,151.7 732.9,154.9 724.2,173.3 		"/>
		<polygon class="st0" points="723.2,172.3 736.9,156.3 739.3,160.7 724.8,176.3 		"/>
		<polygon class="st0" points="725.4,178.7 739.4,164.7 741.2,168 727.8,181.2 		"/>
	</g>
</g>
<g id="Fly">
	<g id="Layer_2">
		<polygon class="st0" points="273.4,102.4 275,115.2 281.4,104 		"/>
		<polyline class="st0" points="273.4,122.9 277.4,113.3 273.4,112 		"/>
		<polygon class="st0" points="271.4,131.6 278.3,121.9 271.4,119.4 		"/>
		<path class="st0" d="M269.4,129v13.6l7.9-11.6C277.3,131.1,274.5,128.7,269.4,129z"/>
		<path class="st0" d="M260.5,172.3l4.5-25.5c0,0,3-0.6,6.6,1.6l-6.9,25.2L260.5,172.3z"/>
		<path class="st0" d="M258.8,212.3v-43.2c0,0,6.4-0.8,7.9,4.5l-3.9,39.3L258.8,212.3z"/>
		<polygon class="st0" points="252,228.1 257.1,208.8 266.1,212.9 262.7,235.3 258.8,240.9 		"/>
		<polygon class="st0" points="175.9,235.1 165.6,214.1 172.1,211 182.2,223 		"/>
		<polygon class="st0" points="165.6,99.5 169.7,103.6 175,99.5 		"/>
		<polygon class="st0" points="170.3,114 165.6,102.7 173.9,102.7 		"/>
		<polygon class="st0" points="169.7,118.7 165.6,109.1 173.9,109.1 		"/>
		<polygon class="st0" points="170.3,128 165.6,117.1 172.6,117.1 172.6,132.2 		"/>
		<polygon class="st0" points="173.9,139.5 169.1,129.6 175,129.6 		"/>
		<polygon class="st0" points="202.3,160.6 194.8,151.4 200.7,151.4 		"/>
		<polygon class="st0" points="222.2,170.8 226.1,156 231.7,159.1 		"/>
		<polygon class="st0" points="177.1,169.1 170.3,135.7 175,137 180.6,165.9 		"/>
		<polygon class="st0" points="182.2,162.4 170.3,215 166,215 173.9,167.8 		"/>
		<polygon class="st0" points="271.1,289.5 295.7,292.4 290.4,302.8 271.1,300.2 		"/>
		<polygon class="st0" points="358.6,192.9 353.6,201.5 365,200.6 		"/>
		<polygon class="st0" points="333.3,414.8 323.4,416.7 331.6,424.7 		"/>
		<polygon class="st0" points="359.3,199.6 339.5,217.1 337.4,214.5 356.4,196.6 		"/>
		<polygon class="st0" points="336.1,212.9 341.1,218.7 328.1,228.5 325.7,226.3 		"/>
		<polygon class="st0" points="307.7,249.5 325.7,223.8 330.2,228.5 310,250.5 		"/>
		<polygon class="st0" points="292.8,293.2 299,277.8 304.7,247.3 312.9,247.3 312,254.7 302.8,281.3 295.7,300.4 289.3,300.4 		"/>
		<polygon class="st0" points="155.2,300.4 144.2,300.4 145.5,309.4 160.1,310.4 		"/>
		<polygon class="st0" points="145.1,306.6 140.5,302.5 132.6,278.9 125.2,262.4 129.9,255.6 146.7,302.3 		"/>
		<polygon class="st0" points="122.6,256.7 95.9,234.8 100,230.4 125.7,254.2 		"/>
		<polygon class="st0" points="54.9,218.1 68.3,221.4 59.6,213.4 		"/>
		<polygon class="st0" points="75,222.2 64.7,217.4 62.6,221.4 76.6,224.8 		"/>
		<polygon class="st0" points="86,227.3 74.4,225.9 73.6,220.7 87,225.5 		"/>
		<polygon class="st0" points="98.5,234.8 84.5,228.1 86.4,223.4 100.1,232.4 		"/>
		<polygon class="st0" points="192.5,296.1 153.3,298.6 155.9,312 200.2,310.4 		"/>
		<polygon class="st0" points="276.3,289.5 228.7,294.3 225.2,312 274.4,302.8 		"/>
		<polygon class="st0" points="201,318.1 149.1,332.8 149.1,355.3 197.9,345 		"/>
		<polygon class="st0" points="141.4,343.1 136,374.5 146.7,398.9 153.3,393.8 152.1,343.1 		"/>
		<polygon class="st0" points="142.9,390.2 125.2,425.9 129.6,428.5 152.1,390.2 		"/>
		<polygon class="st0" points="221.7,318.1 225.4,336.7 268.3,348.2 268.3,330.3 		"/>
		<polygon class="st0" points="276.9,334 287.1,335.1 301,362.9 301.6,386.4 293,388.8 		"/>
		<polygon class="st0" points="297.8,383.7 328.1,414.9 324.6,422.6 293,388.8 		"/>
		<polygon class="st0" points="126.4,423.5 118,428.2 125.7,433.9 129.6,425.6 		"/>
	</g>
	<g id="Layer_3">
		<polygon class="st0" points="207.2,161.7 217.8,161.7 224.9,167.8 233.6,170.7 240.9,192.6 255.4,198.3 248.3,210.2 220.1,213.4 
			207.2,213.4 180.9,211.5 171.3,202.2 187.3,187.6 191.5,173.3 202.4,166.9 		"/>
		<polygon class="st0" points="213.3,211.5 182.5,220.5 174.5,233.3 174.5,259.3 174.5,277.3 183.5,315.2 204,332.2 214,338.6 
			236.5,320.6 248.3,295.3 257,270.6 257,245.2 257,230.7 241.9,217.3 225.2,212.8 		"/>
		<polygon class="st0" points="194.2,316.5 171.6,355.5 164.9,399.7 175,435.4 197.6,464.3 210.5,474.4 220.2,483.5 231.3,473.4 
			249.6,454.6 263.1,429.1 266.9,400 257.3,355.5 237.6,323.7 		"/>
	</g>
	<g id="Layer_4">
		<polygon class="st1" points="195.7,170.8 195.7,193.9 188.5,198.7 171.9,203.3 169.2,194.6 171.4,185 180.3,176.1 		"/>
		<polygon class="st1" points="229.6,169.6 227,186 228.3,194.9 236.1,200.2 251.3,200.2 256.8,199 256.8,184.9 252,179 
			245.5,174.7 236.1,170.8 		"/>
	</g>
	<g id="Layer_5">
		<polygon class="st2" points="214,340.2 204.4,326.1 184.5,298.6 173.5,267 143.4,319 127.3,365.2 106.8,412.7 97.1,440.3 
			97.1,468 105.5,485.9 113.8,494.9 125.4,494.9 138.2,485.3 143.4,473.1 153,472.4 179.3,443.6 201.8,417.2 210.1,392.2 
			217.8,374.9 217.8,355.6 		"/>
		<polygon class="st2" points="314.8,410.2 300,376.2 295.5,358.2 279.5,313.9 257,263.8 242.2,298.6 225.5,326.7 208.8,347.3 
			204.4,374.2 210.1,392.2 217.8,409.5 225.5,411.5 225.5,422.4 236.5,423 236.5,431.4 246.1,446.1 267.9,472.4 285.9,487.2 
			302.6,494.9 310.9,494.9 321.8,479.5 325.7,464.1 325.7,442.3 		"/>
		<polygon class="st2" points="581.3,190.2 586.9,182.3 598.3,166.9 604.5,149.1 621.8,178.3 631,204.2 642.8,230.9 648.3,246.4 
			648.3,261.9 643.5,272 638.7,277 632.1,277 624.8,271.6 621.8,264.8 616.3,264.4 601.2,248.2 588.3,233.4 583.6,219.4 
			579.1,209.6 579.1,198.8 		"/>
		<polygon class="st2" points="548.7,229.1 557.7,210.4 560.6,200.4 570.6,176 584.4,148.5 591.7,168.4 600.3,184.5 609,196.4 
			610.9,211.7 607.2,221.6 602.5,231.1 598.2,232 597.9,238.1 591.8,238.2 591.6,242.9 585.9,251 573.2,265.2 562.8,273 
			553.4,276.9 548.7,276.7 543.1,267.8 541.3,259.1 541.8,246.9 		"/>
		<path class="st2" d="M19.5,381"/>
	</g>
</g>
<g id="Legend">
	<g>
		<text transform="matrix(1 0 0 1 209.7263 142.8936)" class="st1 st3 st4">1</text>
		<circle class="st5" cx="213.3" cy="137.9" r="8.1"/>
	</g>
	<g>
		<text transform="matrix(1 0 0 1 589.8568 73.3024)" class="st1 st3 st4">1</text>
		<circle class="st5" cx="593.5" cy="68.3" r="8.1"/>
	</g>
	<text transform="matrix(1 0 0 1 289.5045 452.4278)" class="st6 st3 st4">2</text>
	<circle class="st7" cx="293" cy="447.9" r="8.1"/>
	<g>
		<text transform="matrix(1 0 0 1 628.0903 252.935)" class="st1 st3 st4">2</text>
		<circle class="st5" cx="631.6" cy="248.4" r="8.1"/>
	</g>
	<g>
		<text transform="matrix(1 0 0 1 73.2209 204.5049)" class="st1 st3 st4">3</text>
		<circle class="st5" cx="76.6" cy="200.2" r="8.1"/>
	</g>
	<g>
		<text transform="matrix(1 0 0 1 458.2229 177.2921)" class="st1 st3 st4">3</text>
		<circle class="st5" cx="461.6" cy="173" r="8.1"/>
	</g>
	<g>
		<text transform="matrix(1 0 0 1 654.1815 496.1095)" class="st1 st3 st4">4</text>
		<circle class="st5" cx="658.2" cy="491.7" r="8.1"/>
	</g>
	<g>
		<text transform="matrix(1 0 0 1 337.0642 393.2872)" class="st1 st3 st4">4</text>
		<circle class="st5" cx="341.1" cy="388.8" r="8.1"/>
	</g>
</g>
</svg>
