<?xml version="1.0" encoding="utf-8"?>
<!-- Generator: Adobe Illustrator 17.0.0, SVG Export Plug-In . SVG Version: 6.00 Build 0)  -->
<!DOCTYPE svg PUBLIC "-//W3C//DTD SVG 1.1//EN" "http://www.w3.org/Graphics/SVG/1.1/DTD/svg11.dtd">
<svg version="1.1" xmlns="http://www.w3.org/2000/svg" xmlns:xlink="http://www.w3.org/1999/xlink" x="0px" y="0px" width="2000px"
	 height="1500px" viewBox="0 0 2000 1500" enable-background="new 0 0 2000 1500" xml:space="preserve">
<g id="bg">
	<rect fill="#323A47" width="2000" height="1500"/>
</g>
<g id="logos">
	<g>
		
			<circle fill="none" stroke="#DEB33E" stroke-width="40" stroke-linejoin="round" stroke-miterlimit="10" cx="1000" cy="750" r="295"/>
		
			<line fill="none" stroke="#DEB33E" stroke-width="20" stroke-linecap="round" stroke-linejoin="round" stroke-miterlimit="10" x1="1089.009" y1="661.211" x2="911.036" y2="839.185"/>
	</g>
	<g>
		<g>
			<path fill="#DEB33E" stroke="#DEB33E" stroke-width="3.6175" stroke-linejoin="round" stroke-miterlimit="10" d="
				M841.372,562.891h33.974V624h62.655v-61.11h33.974v154.429h-33.974v-61.992h-62.655v61.992h-33.974V562.891z"/>
		</g>
	</g>
	<g>
		<path fill="#DEB33E" stroke="#DEB33E" stroke-width="3.6175" stroke-linejoin="round" stroke-miterlimit="10" d="
			M1039.315,778.086h60.227c12.058,0,23.127,1.951,33.203,5.846c10.073,3.899,18.752,9.304,26.033,16.215
			c7.28,6.915,12.906,15.04,16.876,24.378c3.971,9.342,5.957,19.452,5.957,30.334v0.441c0,10.886-1.986,21.034-5.957,30.445
			c-3.971,9.414-9.596,17.576-16.876,24.488c-7.281,6.915-15.96,12.354-26.033,16.326c-10.075,3.971-21.144,5.956-33.203,5.956
			h-60.227V778.086z M1099.542,901.849c6.911,0,13.237-1.103,18.973-3.309c5.736-2.206,10.624-5.367,14.67-9.486
			c4.044-4.116,7.204-8.97,9.487-14.56c2.279-5.588,3.42-11.838,3.42-18.752V855.3c0-6.763-1.141-13.016-3.42-18.752
			c-2.282-5.736-5.443-10.662-9.487-14.781c-4.047-4.116-8.934-7.315-14.67-9.596c-5.736-2.279-12.062-3.42-18.973-3.42h-26.252
			v93.098H1099.542z"/>
	</g>
</g>
</svg>
