<?xml version="1.0" encoding="utf-8"?>
<!-- Generator: Adobe Illustrator 17.0.0, SVG Export Plug-In . SVG Version: 6.00 Build 0)  -->
<!DOCTYPE svg PUBLIC "-//W3C//DTD SVG 1.1//EN" "http://www.w3.org/Graphics/SVG/1.1/DTD/svg11.dtd">
<svg version="1.1" xmlns="http://www.w3.org/2000/svg" xmlns:xlink="http://www.w3.org/1999/xlink" x="0px" y="0px" width="2000px"
	 height="1500px" viewBox="0 0 2000 1500" enable-background="new 0 0 2000 1500" xml:space="preserve">
<g id="bg">
	<rect fill="#323A47" width="2000" height="1500"/>
</g>
<g id="logos">
	<g>
		<g>
			<path fill="none" stroke="#697487" stroke-width="24" stroke-miterlimit="10" d="M949.28,462.663
				c0-83.836-67.804-151.799-151.64-151.799c-83.836,0-151.64,67.963-151.64,151.799c0,2.327,0,468.347,0,470.673
				c0,83.836,67.804,151.799,151.64,151.799c83.836,0,151.72-67.963,151.72-151.799C949.36,931.01,949.28,464.99,949.28,462.663z"/>
			<g>
				<g>
					<path fill="#DEB33E" stroke="#DEB33E" stroke-width="6.0654" stroke-linejoin="round" stroke-miterlimit="10" d="
						M823.473,588.93v-51.129h-51.674v51.129h-28.022V461.563h28.022v50.401h51.674v-50.401h28.022V588.93H823.473z"/>
				</g>
			</g>
			<g>
				<path fill="#DEB33E" stroke="#DEB33E" stroke-width="6.0654" stroke-linejoin="round" stroke-miterlimit="10" d="
					M795.088,933.337h-49.673V805.969h49.673c40.03,0,67.687,27.475,67.687,63.32v0.364
					C862.775,905.497,835.118,933.337,795.088,933.337z M833.481,869.653c0-22.562-15.467-38.392-38.393-38.392h-21.652v76.784
					h21.652c22.926,0,38.393-15.466,38.393-38.028V869.653z"/>
			</g>
			
				<line fill="#DEB33E" stroke="#697487" stroke-width="24.2615" stroke-linejoin="round" stroke-miterlimit="10" x1="951.875" y1="631.727" x2="643.088" y2="764.273"/>
		</g>
		<g>
			<g>
				<path fill="#DEB33E" d="M1356.667,619.634c-0.008-85.895,0.096-156.071,0.096-156.97c0-83.836-68.046-151.799-151.882-151.799
					c-83.836,0-151.882,67.963-151.882,151.799c0,1.336,0,155.663,0,287.225L1356.667,619.634z"/>
				<path fill="#DEB33E" d="M1053,776.29c0,85.929,0,156.147,0,157.047c0,83.836,68.101,151.799,151.937,151.799
					c83.836,0,151.868-67.963,151.868-151.799c0-1.337-0.179-155.724-0.19-287.302L1053,776.29z"/>
			</g>
			<g>
				<g>
					<path fill="#323A47" stroke="#323A47" stroke-width="6.0654" stroke-linejoin="round" stroke-miterlimit="10" d="
						M1231.067,588.93v-51.129h-51.674v51.129h-28.021V461.563h28.021v50.401h51.674v-50.401h28.022V588.93H1231.067z"/>
				</g>
			</g>
			<g>
				<path fill="#323A47" stroke="#323A47" stroke-width="6.0654" stroke-linejoin="round" stroke-miterlimit="10" d="
					M1202.681,933.337h-49.673V805.969h49.673c40.03,0,67.687,27.475,67.687,63.32v0.364
					C1270.368,905.497,1242.712,933.337,1202.681,933.337z M1241.074,869.653c0-22.562-15.467-38.392-38.393-38.392h-21.652v76.784
					h21.652c22.926,0,38.393-15.466,38.393-38.028V869.653z"/>
			</g>
		</g>
	</g>
</g>
</svg>
