<?xml version="1.0" encoding="utf-8"?>
<!-- Generator: Adobe Illustrator 17.0.0, SVG Export Plug-In . SVG Version: 6.00 Build 0)  -->
<!DOCTYPE svg PUBLIC "-//W3C//DTD SVG 1.1//EN" "http://www.w3.org/Graphics/SVG/1.1/DTD/svg11.dtd">
<svg version="1.1" xmlns="http://www.w3.org/2000/svg" xmlns:xlink="http://www.w3.org/1999/xlink" x="0px" y="0px" width="2000px"
	 height="1500px" viewBox="0 0 2000 1500" enable-background="new 0 0 2000 1500" xml:space="preserve">
<g id="bg">
</g>
<g id="logos">
	<g>
		<circle fill="#DEB33E" cx="1181.112" cy="685.873" r="157.837"/>
	</g>
	<g opacity="0.8">
		<path fill="none" stroke="#323A47" stroke-width="25" stroke-linecap="round" stroke-miterlimit="10" d="M738,1073.694
			c40.832,0,40.832,39.611,81.664,39.611c40.833,0,40.833-39.611,81.665-39.611c40.832,0,40.832,39.611,81.664,39.611
			c40.833,0,40.833-39.611,81.666-39.611c40.835,0,40.835,39.611,81.67,39.611s40.835-39.611,81.67-39.611"/>
	</g>
	<g opacity="0.8">
		<g>
			<path fill="none" stroke="#323A47" stroke-width="25" stroke-linecap="round" stroke-miterlimit="10" d="M733,994.694
				c40.832,0,40.832,39.611,81.664,39.611c40.833,0,40.833-39.611,81.665-39.611c40.832,0,40.832,39.611,81.664,39.611
				c40.833,0,40.833-39.611,81.666-39.611c40.835,0,40.835,39.611,81.67,39.611s40.835-39.611,81.67-39.611"/>
		</g>
		<g>
			
				<path fill="none" stroke="#323A47" stroke-width="25" stroke-linecap="round" stroke-linejoin="round" stroke-miterlimit="10" d="
				M738,1152.694c40.832,0,40.832,39.611,81.664,39.611c40.833,0,40.833-39.611,81.665-39.611c40.832,0,40.832,39.611,81.664,39.611
				c40.833,0,40.833-39.611,81.666-39.611c40.835,0,40.835,39.611,81.67,39.611s40.835-39.611,81.67-39.611"/>
		</g>
		
			<polyline fill="none" stroke="#323A47" stroke-width="25" stroke-linecap="round" stroke-linejoin="round" stroke-miterlimit="10" points="
			843.225,328.692 1233.107,929.5 728.084,929.5 1119.814,327.831 		"/>
	</g>
</g>
</svg>
