<?xml version="1.0" encoding="utf-8"?>
<!-- Generator: Adobe Illustrator 19.2.0, SVG Export Plug-In . SVG Version: 6.00 Build 0)  -->
<svg version="1.0" id="Layer_1" xmlns="http://www.w3.org/2000/svg" xmlns:xlink="http://www.w3.org/1999/xlink" x="0px" y="0px"
	 viewBox="0 0 3468 2308" style="enable-background:new 0 0 3468 2308;" xml:space="preserve">
<style type="text/css">
	.st0{fill:#152539;}
	.st1{fill:#2E4D6D;}
	.st2{fill:#D6A69D;}
	.st3{fill:none;stroke:#152539;stroke-width:18;stroke-miterlimit:10;}
	.st4{fill:#FFFFFF;}
	.st5{fill:#593830;}
	.st6{opacity:0.5;fill:none;stroke:#593830;stroke-width:12;stroke-linecap:round;stroke-miterlimit:10;}
</style>
<g>
	<path class="st0" d="M2212,1510c0,49.7-40.3,90-90,90h-820c-49.7,0-90-40.3-90-90V690c0-49.7,40.3-90,90-90h820
		c49.7,0,90,40.3,90,90V1510z"/>
</g>
<path class="st1" d="M1212,1323v187c0,49.7,40.3,90,90,90h820c49.7,0,90-40.3,90-90v-187H1212z"/>
<g>
	<path class="st2" d="M1716,960L1716,960v-56c0-55-44.5-100-99-100s-99,45-99,100v56v56v279v4v4c0,110,44.5,200,99,200s99-90,99-200
		v-4l0,0V960z"/>
</g>
<g>
	<rect x="1398" y="893" class="st1" width="120" height="283"/>
	<g>
		<circle class="st1" cx="1503" cy="1210" r="15"/>
		<rect x="1488" y="1131" class="st1" width="30" height="79"/>
	</g>
	<g>
		<circle class="st1" cx="1413" cy="1210" r="15"/>
		<rect x="1398" y="1141" class="st1" width="30" height="69"/>
	</g>
	<g>
		<circle class="st1" cx="1458" cy="1210" r="15"/>
		<rect x="1443" y="1141" class="st1" width="30" height="69"/>
	</g>
</g>
<circle class="st0" cx="1480.5" cy="1176.5" r="7.5"/>
<circle class="st0" cx="1435.5" cy="1175.5" r="7.5"/>
<path class="st2" d="M1913,905c0-55-44.7-100-99.5-100s-99.5,45-99.5,100v267c0,1.7-0.2,3.3-0.1,5h0.1v101h0.2
	c-0.3,5.9-0.2,11.9-0.2,18v8c0,110,44.7,200,99.5,200c54.8,0,99.5-90,99.5-200v-8c0-6.1-0.1-12.1-0.4-18h0.4v-101h-0.1
	c0.1-1.7,0.1-3.3,0.1-5V905z"/>
<rect x="1707" y="900" class="st0" width="18" height="372"/>
<path class="st1" d="M1883,780C1883,780,1883,780,1883,780l-335,0v120h335v0c16.6,0,30,13.4,30,30v147v18v89v58
	c0,16.6-13.4,30-30,30h-147h-48h-55h-24c-8.3,0-15,6.7-15,15c0,8.3,6.7,15,15,15h24v15h-24c-8.3,0-15,6.7-15,15c0,8.3,6.7,15,15,15
	h24v15h-24c-8.3,0-15,6.7-15,15c0,8.3,6.7,15,15,15h24h45h205c82.8,0,150-67.2,150-150v-58V930C2033,847.2,1965.8,780,1883,780z"/>
<circle class="st2" cx="1633" cy="1309.5" r="7.5"/>
<circle class="st2" cx="1633" cy="1354.5" r="7.5"/>
<g>
	<g>
		<path class="st1" d="M1513,778c-68.8,0-125,51.7-125,115s56.2,115,125,115h72c68.8,0,125-51.7,125-115s-56.2-115-125-115H1513z"/>
		<path class="st3" d="M1513,778c-68.8,0-125,51.7-125,115s56.2,115,125,115h72c68.8,0,125-51.7,125-115s-56.2-115-125-115H1513z"/>
	</g>
</g>
<g>
	<path class="st1" d="M1517,998v112c0,0,69-33.8,69-112H1517z"/>
	<path class="st4" d="M1467,999c0,64.5,50,90,50,90s50-27.2,50-90c0-64.5-50-90-50-90S1467,936.2,1467,999z"/>
	<circle class="st5" cx="1517" cy="999" r="22.3"/>
</g>
<line class="st6" x1="1782" y1="1424" x2="1844" y2="1424"/>
<line class="st6" x1="1793" y1="1450" x2="1833" y2="1450"/>
<line class="st6" x1="1586" y1="1424" x2="1648" y2="1424"/>
<line class="st6" x1="1597" y1="1450" x2="1637" y2="1450"/>
<g>
	<path class="st0" d="M2353.5,663.8c7.1,4.2,7.1,11.1,0,15.4l-9.2,5.5c-7.1,4.2-16.3,13.5-20.6,20.6l-5.5,9.2
		c-4.2,7.1-11.1,7.1-15.4,0l-5.5-9.2c-4.2-7.1-13.5-16.3-20.6-20.6l-9.2-5.5c-7.1-4.2-7.1-11.1,0-15.4l9.2-5.5
		c7.1-4.2,16.3-13.5,20.6-20.6l5.5-9.2c4.2-7.1,11.1-7.1,15.4,0l5.5,9.2c4.2,7.1,13.5,16.3,20.6,20.6L2353.5,663.8z"/>
</g>
<g>
	<path class="st4" d="M2165.7,821.2c3.1,1.8,3.1,4.8,0,6.7c-3.1,1.8-7.1,5.8-8.9,8.9c-1.8,3.1-4.8,3.1-6.7,0
		c-1.8-3.1-5.8-7.1-8.9-8.9c-3.1-1.8-3.1-4.8,0-6.7c3.1-1.8,7.1-5.8,8.9-8.9c1.8-3.1,4.8-3.1,6.7,0
		C2158.7,815.3,2162.7,819.3,2165.7,821.2z"/>
</g>
<g>
	<path class="st4" d="M2102.7,733.2c3.1,1.8,3.1,4.8,0,6.7c-3.1,1.8-7.1,5.8-8.9,8.9c-1.8,3.1-4.8,3.1-6.7,0
		c-1.8-3.1-5.8-7.1-8.9-8.9c-3.1-1.8-3.1-4.8,0-6.7c3.1-1.8,7.1-5.8,8.9-8.9c1.8-3.1,4.8-3.1,6.7,0
		C2095.7,727.3,2099.7,731.3,2102.7,733.2z"/>
</g>
<g>
	<path class="st4" d="M1409.7,705.2c3.1,1.8,3.1,4.8,0,6.7s-7.1,5.8-8.9,8.9c-1.8,3.1-4.8,3.1-6.7,0c-1.8-3.1-5.8-7.1-8.9-8.9
		s-3.1-4.8,0-6.7s7.1-5.8,8.9-8.9c1.8-3.1,4.8-3.1,6.7,0C1402.7,699.3,1406.7,703.3,1409.7,705.2z"/>
</g>
<g>
	<path class="st4" d="M1352.7,767.2c3.1,1.8,3.1,4.8,0,6.7s-7.1,5.8-8.9,8.9c-1.8,3.1-4.8,3.1-6.7,0c-1.8-3.1-5.8-7.1-8.9-8.9
		s-3.1-4.8,0-6.7s7.1-5.8,8.9-8.9c1.8-3.1,4.8-3.1,6.7,0C1345.7,761.3,1349.7,765.3,1352.7,767.2z"/>
</g>
<g>
	<path class="st4" d="M1309.7,688.2c3.1,1.8,3.1,4.8,0,6.7s-7.1,5.8-8.9,8.9c-1.8,3.1-4.8,3.1-6.7,0c-1.8-3.1-5.8-7.1-8.9-8.9
		s-3.1-4.8,0-6.7s7.1-5.8,8.9-8.9c1.8-3.1,4.8-3.1,6.7,0C1302.7,682.3,1306.7,686.3,1309.7,688.2z"/>
</g>
<g>
	<path class="st0" d="M2223.5,759.3c-2,0-5.8-1-8.4-7.5c-2.5-6.2-9.8-13.5-16-16c-6.5-2.6-7.5-6.3-7.5-8.4s1-5.8,7.5-8.4
		c6.2-2.5,13.5-9.8,16-16c2.6-6.5,6.3-7.5,8.4-7.5s5.8,1,8.4,7.5c2.5,6.2,9.8,13.5,16,16c6.5,2.6,7.5,6.3,7.5,8.4s-1,5.8-7.5,8.4
		c-6.2,2.5-13.5,9.8-16,16C2229.3,758.3,2225.5,759.3,2223.5,759.3z"/>
	<path class="st4" d="M2223.5,699.2c1.8,0,3.7,1.8,5.1,5.3c2.8,7,10.9,15.1,17.9,17.9s7,7.4,0,10.2s-15.1,10.9-17.9,17.9
		c-1.4,3.5-3.3,5.3-5.1,5.3c-1.8,0-3.7-1.8-5.1-5.3c-2.8-7-10.9-15.1-17.9-17.9s-7-7.4,0-10.2s15.1-10.9,17.9-17.9
		C2219.8,701,2221.7,699.2,2223.5,699.2 M2223.5,692.2c-2.9,0-8.2,1.3-11.6,9.7c-2.1,5.2-8.8,11.9-14,14c-8.4,3.4-9.7,8.7-9.7,11.6
		s1.3,8.2,9.7,11.6c5.2,2.1,11.9,8.8,14,14c3.4,8.4,8.7,9.7,11.6,9.7s8.2-1.3,11.6-9.7c2.1-5.2,8.8-11.9,14-14
		c8.4-3.4,9.7-8.7,9.7-11.6s-1.3-8.2-9.7-11.6c-5.2-2.1-11.9-8.8-14-14C2231.7,693.5,2226.4,692.2,2223.5,692.2L2223.5,692.2z"/>
</g>
<g>
	<path class="st4" d="M1550.4,1345.6c-5-8.6-5-22.6,0-31.2l6.9-11.8c5-8.6,0.9-15.6-9-15.6h-13.7c-9.9,0-22-7-27-15.6l-7-12.2
		c-5-8.6-13.1-8.6-18,0l-7,12.2c-4.9,8.6-17.1,15.6-27,15.6h-13.7c-9.9,0-14,7-9,15.6l6.9,11.9c5,8.6,5,22.6,0,31.2l-6.9,11.8
		c-5,8.6-0.9,15.6,9,15.6h13.7c9.9,0,22.1,7,27,15.6l7,12.2c4.9,8.6,13,8.6,18,0l7-12.2c5-8.6,17.1-15.6,27-15.6h13.7
		c9.9,0,14-7,9-15.6L1550.4,1345.6z"/>
</g>
</svg>
