<?xml version="1.0" encoding="UTF-8"?> <svg width="23px" height="13px" viewBox="0 0 23 13" version="1.1" xmlns="http://www.w3.org/2000/svg" xmlns:xlink="http://www.w3.org/1999/xlink"><!-- Generator: Sketch 42 (36781) - http://www.bohemiancoding.com/sketch --><title>Group 2</title><desc>Created with Sketch.</desc><defs></defs><g id="Page-1" stroke="none" stroke-width="1" fill="none" fill-rule="evenodd"><g id="Index" transform="translate(-979.000000, -207.000000)" fill="#FFFFFF"><g id="Group-2" transform="translate(979.000000, 207.000000)"><path d="M11.9726562,6.296875 C11.9726562,7.94401865 11.3899798,9.35025459 10.2246094,10.515625 C9.05923896,11.6809954 7.64974785,12.2636719 5.99609375,12.2636719 C4.3489501,12.2636719 2.94271416,11.6809954 1.77734375,10.515625 C0.61197334,9.35025459 0.029296875,7.94401865 0.029296875,6.296875 C0.029296875,4.6432209 0.61197334,3.23372979 1.77734375,2.06835938 C2.94271416,0.902988965 4.3489501,0.3203125 5.99609375,0.3203125 C7.64974785,0.3203125 9.05923896,0.902988965 10.2246094,2.06835938 C11.3899798,3.23372979 11.9726562,4.6432209 11.9726562,6.296875 Z M11.1035156,6.296875 C11.1035156,4.88410752 10.6054737,3.67969248 9.609375,2.68359375 C8.61327627,1.68749502 7.40886123,1.18945312 5.99609375,1.18945312 C4.58983672,1.18945312 3.38867686,1.68749502 2.39257812,2.68359375 C1.39647939,3.67969248 0.8984375,4.88410752 0.8984375,6.296875 C0.8984375,7.70313203 1.39647939,8.90429189 2.39257812,9.90039062 C3.38867686,10.8964894 4.58983672,11.3945312 5.99609375,11.3945312 C7.40886123,11.3945312 8.61327627,10.8964894 9.609375,9.90039062 C10.6054737,8.90429189 11.1035156,7.70313203 11.1035156,6.296875 Z M4.47265625,5.05664062 C4.47265625,5.264975 4.39778721,5.44400967 4.24804688,5.59375 C4.09830654,5.74349033 3.91927188,5.81835938 3.7109375,5.81835938 C3.50260312,5.81835938 3.32519604,5.74349033 3.17871094,5.59375 C3.03222583,5.44400967 2.95898438,5.264975 2.95898438,5.05664062 C2.95898438,4.84830625 3.03222583,4.67089917 3.17871094,4.52441406 C3.32519604,4.37792896 3.50260312,4.3046875 3.7109375,4.3046875 C3.91927188,4.3046875 4.09830654,4.37792896 4.24804688,4.52441406 C4.39778721,4.67089917 4.47265625,4.84830625 4.47265625,5.05664062 Z M9.04296875,5.05664062 C9.04296875,5.264975 8.96972729,5.44400967 8.82324219,5.59375 C8.67675708,5.74349033 8.49935,5.81835938 8.29101562,5.81835938 C8.08268125,5.81835938 7.90364658,5.74349033 7.75390625,5.59375 C7.60416592,5.44400967 7.52929688,5.264975 7.52929688,5.05664062 C7.52929688,4.84830625 7.60416592,4.67089917 7.75390625,4.52441406 C7.90364658,4.37792896 8.08268125,4.3046875 8.29101562,4.3046875 C8.49935,4.3046875 8.67675708,4.37792896 8.82324219,4.52441406 C8.96972729,4.67089917 9.04296875,4.84830625 9.04296875,5.05664062 Z M3.2421875,8.22070312 L3.828125,7.87890625 C4.32291914,8.77734824 5.04556816,9.2265625 5.99609375,9.2265625 C6.94661934,9.2265625 7.66926836,8.77734824 8.1640625,7.87890625 L8.75,8.22070312 C8.11197598,9.43815713 7.19401641,10.046875 5.99609375,10.046875 C5.39062197,10.046875 4.85840073,9.89062656 4.39941406,9.578125 C3.94042739,9.26562344 3.55468906,8.813154 3.2421875,8.22070312 Z" id="☺︎"></path><path d="M22.9726562,6.296875 C22.9726562,7.94401865 22.3899798,9.35025459 21.2246094,10.515625 C20.059239,11.6809954 18.6497479,12.2636719 16.9960938,12.2636719 C15.3489501,12.2636719 13.9427142,11.6809954 12.7773438,10.515625 C11.6119733,9.35025459 11.0292969,7.94401865 11.0292969,6.296875 C11.0292969,4.6432209 11.6119733,3.23372979 12.7773438,2.06835938 C13.9427142,0.902988965 15.3489501,0.3203125 16.9960938,0.3203125 C18.6497479,0.3203125 20.059239,0.902988965 21.2246094,2.06835938 C22.3899798,3.23372979 22.9726562,4.6432209 22.9726562,6.296875 Z M22.1035156,6.296875 C22.1035156,4.88410752 21.6054737,3.67969248 20.609375,2.68359375 C19.6132763,1.68749502 18.4088612,1.18945312 16.9960938,1.18945312 C15.5898367,1.18945312 14.3886769,1.68749502 13.3925781,2.68359375 C12.3964794,3.67969248 11.8984375,4.88410752 11.8984375,6.296875 C11.8984375,7.70313203 12.3964794,8.90429189 13.3925781,9.90039062 C14.3886769,10.8964894 15.5898367,11.3945312 16.9960938,11.3945312 C18.4088612,11.3945312 19.6132763,10.8964894 20.609375,9.90039062 C21.6054737,8.90429189 22.1035156,7.70313203 22.1035156,6.296875 Z M15.4726562,5.05664062 C15.4726562,5.264975 15.3977872,5.44400967 15.2480469,5.59375 C15.0983065,5.74349033 14.9192719,5.81835938 14.7109375,5.81835938 C14.5026031,5.81835938 14.325196,5.74349033 14.1787109,5.59375 C14.0322258,5.44400967 13.9589844,5.264975 13.9589844,5.05664062 C13.9589844,4.84830625 14.0322258,4.67089917 14.1787109,4.52441406 C14.325196,4.37792896 14.5026031,4.3046875 14.7109375,4.3046875 C14.9192719,4.3046875 15.0983065,4.37792896 15.2480469,4.52441406 C15.3977872,4.67089917 15.4726562,4.84830625 15.4726562,5.05664062 Z M20.0429688,5.05664062 C20.0429688,5.264975 19.9697273,5.44400967 19.8232422,5.59375 C19.6767571,5.74349033 19.49935,5.81835938 19.2910156,5.81835938 C19.0826812,5.81835938 18.9036466,5.74349033 18.7539062,5.59375 C18.6041659,5.44400967 18.5292969,5.264975 18.5292969,5.05664062 C18.5292969,4.84830625 18.6041659,4.67089917 18.7539062,4.52441406 C18.9036466,4.37792896 19.0826812,4.3046875 19.2910156,4.3046875 C19.49935,4.3046875 19.6767571,4.37792896 19.8232422,4.52441406 C19.9697273,4.67089917 20.0429688,4.84830625 20.0429688,5.05664062 Z M14.2421875,8.22070312 L14.828125,7.87890625 C15.3229191,8.77734824 16.0455682,9.2265625 16.9960938,9.2265625 C17.9466193,9.2265625 18.6692684,8.77734824 19.1640625,7.87890625 L19.75,8.22070312 C19.111976,9.43815713 18.1940164,10.046875 16.9960938,10.046875 C16.390622,10.046875 15.8584007,9.89062656 15.3994141,9.578125 C14.9404274,9.26562344 14.5546891,8.813154 14.2421875,8.22070312 Z" id="☺︎-copy"></path></g></g></g></svg>