<?xml version="1.0" encoding="utf-8"?>
<!-- Generator: Adobe Illustrator 17.0.0, SVG Export Plug-In . SVG Version: 6.00 Build 0)  -->
<!DOCTYPE svg PUBLIC "-//W3C//DTD SVG 1.1//EN" "http://www.w3.org/Graphics/SVG/1.1/DTD/svg11.dtd">
<svg version="1.1" xmlns="http://www.w3.org/2000/svg" xmlns:xlink="http://www.w3.org/1999/xlink" x="0px" y="0px" width="2000px"
	 height="1500px" viewBox="0 0 2000 1500" enable-background="new 0 0 2000 1500" xml:space="preserve">
<g id="bg">
</g>
<g id="logos">
	<g>
		
			<polyline fill="none" stroke="#323A47" stroke-width="15" stroke-linecap="round" stroke-linejoin="round" stroke-miterlimit="10" points="
			555.25,484.748 610.25,539.748 555.25,594.748 		"/>
		
			<polyline fill="none" stroke="#323A47" stroke-width="15" stroke-linecap="round" stroke-linejoin="round" stroke-miterlimit="10" points="
			602.25,484.748 657.25,539.748 602.25,594.748 		"/>
		
			<polyline fill="none" stroke="#323A47" stroke-width="15" stroke-linecap="round" stroke-linejoin="round" stroke-miterlimit="10" points="
			649.25,484.748 704.25,539.748 649.25,594.748 		"/>
		
			<polyline fill="none" stroke="#323A47" stroke-width="15" stroke-linecap="round" stroke-linejoin="round" stroke-miterlimit="10" points="
			1340.75,484.748 1395.75,539.748 1340.75,594.748 		"/>
		
			<line fill="none" stroke="#323A47" stroke-width="15" stroke-linecap="round" stroke-linejoin="round" stroke-miterlimit="10" x1="704" y1="539.5" x2="735" y2="539.5"/>
		
			<line fill="none" stroke="#323A47" stroke-width="15" stroke-linecap="round" stroke-linejoin="round" stroke-miterlimit="10" x1="1396" y1="539.5" x2="1241" y2="539.5"/>
	</g>
	<g>
		<path fill="none" stroke="#DEB33E" stroke-width="15" stroke-miterlimit="10" d="M791.084,836.31
			c-12.887-12.887-33.782-12.887-46.669,0c-12.887,12.887-12.887,33.782,0,46.669l23.334,23.335l23.335-23.335
			C803.972,870.091,803.972,849.197,791.084,836.31z"/>
		<path fill="none" stroke="#DEB33E" stroke-width="15" stroke-miterlimit="10" d="M1011.084,836.31
			c-12.887-12.887-33.782-12.887-46.669,0c-12.887,12.887-12.887,33.782,0,46.669l23.334,23.335l23.335-23.335
			C1023.972,870.091,1023.972,849.197,1011.084,836.31z"/>
		<polyline fill="none" stroke="#DEB33E" stroke-width="15" stroke-miterlimit="10" points="767.75,1126.748 987.75,906.748 
			1207.75,1126.748 		"/>
		
			<line fill="none" stroke="#DEB33E" stroke-width="15" stroke-miterlimit="10" x1="987.75" y1="1126.748" x2="767.75" y2="906.748"/>
		<path fill="none" stroke="#DEB33E" stroke-width="15" stroke-miterlimit="10" d="M1231.084,836.31
			c-12.887-12.887-33.782-12.887-46.669,0c-12.887,12.887-12.887,33.782,0,46.669l23.334,23.335l23.334-23.335
			C1243.972,870.091,1243.972,849.197,1231.084,836.31z"/>
		
			<line fill="none" stroke="#DEB33E" stroke-width="15" stroke-miterlimit="10" x1="987.998" y1="1126.5" x2="1207.75" y2="906.748"/>
		<polyline fill="none" stroke="#DEB33E" stroke-width="15" stroke-linejoin="round" stroke-miterlimit="10" points="1207.5,907 
			1207.5,1126.5 767.5,1126.5 767.5,907 		"/>
		<g>
			
				<polyline fill="none" stroke="#323A47" stroke-width="15" stroke-linecap="round" stroke-linejoin="round" stroke-miterlimit="10" points="
				555.25,961.748 610.25,1016.748 555.25,1071.748 			"/>
			
				<polyline fill="none" stroke="#323A47" stroke-width="15" stroke-linecap="round" stroke-linejoin="round" stroke-miterlimit="10" points="
				602.25,961.748 657.25,1016.748 602.25,1071.748 			"/>
			
				<polyline fill="none" stroke="#323A47" stroke-width="15" stroke-linecap="round" stroke-linejoin="round" stroke-miterlimit="10" points="
				649.25,961.748 704.25,1016.748 649.25,1071.748 			"/>
			
				<polyline fill="none" stroke="#323A47" stroke-width="15" stroke-linecap="round" stroke-linejoin="round" stroke-miterlimit="10" points="
				1340.75,961.748 1395.75,1016.748 1340.75,1071.748 			"/>
			
				<line fill="none" stroke="#323A47" stroke-width="15" stroke-linecap="round" stroke-linejoin="round" stroke-miterlimit="10" x1="704" y1="1016.5" x2="735" y2="1016.5"/>
			
				<line fill="none" stroke="#323A47" stroke-width="15" stroke-linecap="round" stroke-linejoin="round" stroke-miterlimit="10" x1="1396" y1="1016.5" x2="1241" y2="1016.5"/>
		</g>
	</g>
	<path fill="none" stroke="#DEB33E" stroke-width="15" stroke-linecap="round" stroke-linejoin="round" stroke-miterlimit="10" d="
		M1207.5,572.498V353l-109.75,109.748l-110-110l-110,110L767.5,353v301.5h138.498h-0.381h164.267h-0.381H1207.5v-82h0.25
		L1207.5,572.498z"/>
</g>
</svg>
