<?xml version="1.0" encoding="utf-8"?>
<!-- Generator: Adobe Illustrator 17.0.0, SVG Export Plug-In . SVG Version: 6.00 Build 0)  -->
<!DOCTYPE svg PUBLIC "-//W3C//DTD SVG 1.1//EN" "http://www.w3.org/Graphics/SVG/1.1/DTD/svg11.dtd">
<svg version="1.1" xmlns="http://www.w3.org/2000/svg" xmlns:xlink="http://www.w3.org/1999/xlink" x="0px" y="0px" width="2000px"
	 height="1500px" viewBox="0 0 2000 1500" enable-background="new 0 0 2000 1500" xml:space="preserve">
<g id="bg">
</g>
<g id="logos">
	<g>
		<g>
			<path fill="#323A47" d="M1185.113,553.5c35.358,0,68.6,13.769,93.602,38.771s38.771,58.244,38.771,93.602
				c0,35.358-13.769,68.6-38.771,93.602c-25.002,25.002-58.244,38.771-93.602,38.771c-35.358,0-68.6-13.769-93.602-38.771
				c-25.002-25.002-38.771-58.244-38.771-93.602c0-35.358,13.769-68.6,38.771-93.602S1149.754,553.5,1185.113,553.5
				 M1185.113,528.036c-87.171,0-157.837,70.666-157.837,157.837c0,87.171,70.666,157.837,157.837,157.837
				c87.171,0,157.837-70.666,157.837-157.837C1342.949,598.702,1272.283,528.036,1185.113,528.036L1185.113,528.036z"/>
		</g>
		<polygon fill="#FFFFFF" points="1020.278,575.332 1210.583,866.756 955.382,805.129 		"/>
		<g>
			<g>
				<g>
					<path fill="none" stroke="#323A47" stroke-width="25" stroke-linecap="round" stroke-miterlimit="10" d="M737,994.694
						c40.832,0,40.832,39.611,81.664,39.611c40.833,0,40.833-39.611,81.665-39.611c40.832,0,40.832,39.611,81.664,39.611
						c40.833,0,40.833-39.611,81.666-39.611c40.835,0,40.835,39.611,81.67,39.611s40.835-39.611,81.67-39.611"/>
				</g>
				<g>
					
						<path fill="none" stroke="#DEB33E" stroke-width="25" stroke-linecap="round" stroke-linejoin="round" stroke-miterlimit="10" d="
						M742,1073.694c40.832,0,40.832,39.611,81.664,39.611c40.833,0,40.833-39.611,81.665-39.611
						c40.832,0,40.832,39.611,81.664,39.611c40.833,0,40.833-39.611,81.666-39.611c40.835,0,40.835,39.611,81.67,39.611
						s40.835-39.611,81.67-39.611"/>
				</g>
				<g>
					
						<path fill="none" stroke="#323A47" stroke-width="25" stroke-linecap="round" stroke-linejoin="round" stroke-miterlimit="10" d="
						M742,1152.694c40.832,0,40.832,39.611,81.664,39.611c40.833,0,40.833-39.611,81.665-39.611
						c40.832,0,40.832,39.611,81.664,39.611c40.833,0,40.833-39.611,81.666-39.611c40.835,0,40.835,39.611,81.67,39.611
						s40.835-39.611,81.67-39.611"/>
				</g>
			</g>
		</g>
		
			<polyline fill="none" stroke="#323A47" stroke-width="25" stroke-linecap="round" stroke-linejoin="round" stroke-miterlimit="10" points="
			847.225,328.692 1237.107,929.5 732.084,929.5 1123.814,327.831 		"/>
	</g>
</g>
</svg>
