<?xml version="1.0" encoding="UTF-8"?>
<svg width="1300px" height="900px" viewBox="0 0 1300 900" version="1.1" xmlns="http://www.w3.org/2000/svg" xmlns:xlink="http://www.w3.org/1999/xlink">
    <!-- Generator: Sketch 43.2 (39069) - http://www.bohemiancoding.com/sketch -->
    <title>Group 7</title>
    <desc>Created with Sketch.</desc>
    <defs></defs>
    <g id="Page-1" stroke="none" stroke-width="1" fill="none" fill-rule="evenodd">
        <g id="Group-7">
            <rect id="Rectangle-8" fill="#FFFFFF" x="0" y="0" width="1300" height="900"></rect>
            <path d="M756.353071,486.244471 L763.3256,493.217 C766.4236,496.315 771.4936,496.315 774.5906,493.217 L776.6946,491.114 C779.7926,488.016 784.8626,488.016 787.9596,491.114 L810.7466,513.9 C813.8446,516.998 813.8446,522.067 810.7466,525.165 L787.9596,547.952 C784.8626,551.05 779.7926,551.05 776.6946,547.952 L774.5906,545.848 C771.4936,542.75 766.4236,542.75 763.3256,545.848 L710.9596,598.214 C707.8616,601.312 702.7926,601.312 699.6946,598.214 L696.9826,595.502 C693.8846,592.404 688.8156,592.404 685.7176,595.502 L653.6076,627.612 C650.5096,630.709 645.4406,630.709 642.3426,627.612 L588.5556,573.825 C585.4576,570.727 580.3886,570.727 577.2906,573.825 L573.3956,577.72 C570.2976,580.818 565.2286,580.818 562.1306,577.72 L529.0546,544.643 C525.9566,541.545 521.0306,541.402 518.1086,544.324 C515.1866,547.246 510.2606,547.102 507.1626,544.005 L488.3236,525.165 C485.2256,522.067 485.2256,516.998 488.3236,513.9 L507.1626,495.06 C510.2606,491.963 515.1866,491.819 518.1086,494.741 C521.0306,497.663 525.9566,497.52 529.0546,494.422 L538.6016,484.875 C542.7876,490.647 547.4536,496.133 552.5926,501.273 C578.0706,526.751 611.9446,540.782 647.9756,540.782 C684.0066,540.782 717.8796,526.751 743.3576,501.273 C748.0906,496.54 752.4266,491.517 756.3526,486.244 L748.7489,478.6407 C764.0049,457.6027 772.2459,432.3817 772.2459,405.8907 C772.2459,372.6967 759.3199,341.4897 735.8479,318.0177 C712.3759,294.5467 681.1689,281.6207 647.9759,281.6207 C614.7819,281.6207 583.5749,294.5467 560.1029,318.0177 C536.6309,341.4897 523.7049,372.6967 523.7049,405.8907 C523.7049,431.8057 531.5839,456.5097 546.2089,477.2667 L538.6009,484.8747 C522.0339,462.0357 513.0839,434.6527 513.0839,405.8907 C513.0839,369.8597 527.1159,335.9857 552.5929,310.5087 C578.0709,285.0307 611.9449,270.9997 647.9759,270.9997 C684.0059,270.9997 717.8799,285.0307 743.3579,310.5087 C768.8359,335.9857 782.8669,369.8597 782.8669,405.8907 C782.8669,435.227597 773.562966,463.134503 756.353082,486.244456 Z M699.6948,440.8512 C702.7928,437.7532 707.8618,437.7532 710.9598,440.8512 L748.7488,478.6402 C744.8888,483.9642 740.5878,489.0232 735.8478,493.7632 C712.3768,517.2342 681.1688,530.1612 647.9758,530.1612 C614.7818,530.1612 583.5748,517.2342 560.1028,493.7632 C554.9558,488.6162 550.3168,483.0972 546.2088,477.2672 L562.1308,461.3452 C565.2288,458.2472 570.2978,458.2472 573.3958,461.3452 L577.2908,465.2402 C580.3888,468.3382 585.4578,468.3382 588.5558,465.2402 L642.3428,411.4532 C645.4408,408.3552 650.5098,408.3552 653.6078,411.4532 L685.7178,443.5632 C688.8158,446.6612 693.8848,446.6612 696.9828,443.5632 L699.6948,440.8512 Z" id="Combined-Shape" fill="#121212"></path>
        </g>
    </g>
</svg>